<svg xmlns="http://www.w3.org/2000/svg" viewBox="0 0 55.31 163.54" width="55.31" height="163.54"><g xmlns="http://www.w3.org/2000/svg" transform="matrix(0 1 -1 0 55.31 -0)"><g xmlns="http://www.w3.org/2000/svg" transform="matrix(0 1 -1 0 163.54 -0)"><g xmlns="http://www.w3.org/2000/svg" transform="matrix(0 1 -1 0 55.31 -0)"><g id="Layer_1-2"><circle cx="27.65" cy="27.65" r="27.65" transform="translate(-5.56 48.31) rotate(-76.88)" style="fill:#003d78; stroke-width:0px;" /><path d="M27.65,3.22C14.18,3.22,3.22,14.18,3.22,27.65s10.96,24.44,24.44,24.44,24.44-10.96,24.44-24.44S41.13,3.22,27.65,3.22Z" style="fill:#00a1c8; fill-rule:evenodd; stroke-width:0px;" /><path d="M38.18,44.68h-7.48c-1.44-.04-2.33-.67-3.05-1.39-.73.72-1.68,1.39-3.17,1.39h-7.39c-1.27,0-2.24-.77-2.68-2.11l-2.14-6.59c-.54-1.66-.26-2.63.28-3.67-1.14-.58-1.88-1.26-2.38-2.8l-2.16-6.65c-.45-1.17-.05-2.5.97-3.24l5.45-3.96c.89-.65,1.72-1.18,2.97-1.18.28,0,.58.03.92.08.25-1.62.97-2.43,2.11-3.26l5.49-3.99c.49-.39,1.11-.6,1.73-.6.59,0,1.16.18,1.64.53l5.7,4.15c1.36.99,1.79,1.91,1.99,3.17.33-.05.63-.08.91-.08,1.25,0,2.09.54,2.98,1.19l5.35,3.89c1.04.69,1.49,1.99,1.11,3.18l-.39,1.18h0s-1.77,5.44-1.77,5.44v.02c-.53,1.42-1.03,2.24-2.43,2.93.64,1.22.79,2.07.17,3.98l-2.05,6.3v.03c-.38.93-1.14,2.04-2.7,2.04Z" style="fill:#003d78; fill-rule:evenodd; stroke-width:0px;" /><path d="M27.65,41.44c-.93,1-1.6,1.98-3.17,1.98h-7.39c-.8,0-1.25-.53-1.48-1.24l-2.14-6.59c-.45-1.39-.19-2.01.39-3.05l.44-.8-.87-.4c-1.09-.5-1.64-.92-2.07-2.22l-2.17-6.68c-.25-.64-.06-1.39.52-1.81l5.45-3.96c1.19-.86,1.78-1.11,3.18-.83l1.05.21.13-1.1c.16-1.33.62-1.89,1.63-2.63l5.52-4.01c.53-.43,1.3-.47,1.87-.05l5.7,4.15c1.13.82,1.38,1.46,1.53,2.65.04.33.08.66.12.99.39-.08.78-.16,1.17-.23,1.3-.24,1.9.02,3.06.86l5.37,3.91c.57.37.85,1.09.63,1.76h0s-2.15,6.61-2.15,6.61c-.47,1.3-.83,1.79-1.94,2.31-.35.16-.7.32-1.05.48l.43.77c.67,1.21.86,1.66.3,3.39l-2.04,6.27c-.29.73-.7,1.25-1.52,1.25h-7.34s0,0,0,0c-1.58,0-2.23-.96-3.17-1.98Z" style="fill:#fff; fill-rule:evenodd; stroke-width:0px;" /><path d="M28.54,28.62l6.4-2.08h0c.61-.2,1.31,0,1.71.56.04.05.07.1.1.15h0c.29.53.59,1.06.88,1.59l-1.9.88-.2-.37h0s-.04-.06-.06-.09c-.25-.34-.68-.47-1.06-.35h0l-4.58,1.49-.62.85-1.29-1.78.62-.85h0ZM29.09,26.94l.62.85,2.09-.68-.62-.85v-4.81h0c0-.4.26-.77.66-.9.03-.01.07-.02.1-.03h0l.41-.08-.25-2.08c-.59.12-1.18.23-1.78.35h0c-.06.01-.11.03-.17.04-.65.21-1.06.81-1.06,1.45h0v6.73h0ZM33.63,29.63l-2.09.68,1.51,2.08h0c.38.52,1.06.76,1.71.55.06-.02.11-.04.16-.06h0c2.21-1.02,4.43-2.05,6.64-3.07h0s.07-.04.07-.04c.38-.19.65-.52.78-.9h0l2.28-6.99-5.95-4.32h0c-.33-.24-.74-.34-1.16-.27h-.08s0,.02,0,.02h0c-.83.16-1.66.33-2.49.49l.25,2.08,2.03-.4h0c.25-.05.51,0,.72.14l4.22,3.07-1.61,4.96c-.08.23-.26.43-.49.54h0l-4.95,2.29h0s-.06.03-.1.04c-.4.13-.83-.02-1.06-.34h0l-.38-.52h0ZM27.65,25.9l1-.32v-2.2s-1,.32-1,.32l-4.58-1.49h0c-.38-.12-.65-.48-.65-.9,0-.04,0-.07,0-.1h0l.05-.41-2.06-.41c-.07.6-.14,1.2-.22,1.8h0c0,.06,0,.12,0,.18,0,.68.44,1.26,1.06,1.46h0l6.4,2.08h0ZM31.62,24.61v-2.2s.61-.2.61-.2h0c.38-.12.65-.48.65-.9,0-.04,0-.07,0-.1h0l-.65-5.42h0c-.03-.26-.16-.48-.36-.64l-4.22-3.07-4.22,3.07h0c-.19.15-.33.38-.36.64h0l-.25,2.05-1.36-.27-.7-.14c.1-.84.2-1.68.3-2.52h0s0-.08,0-.08c.06-.42.29-.78.62-1.02h0l5.95-4.32,5.95,4.32h0c.33.24.56.6.62,1.02v.08s.01,0,.01,0h0c.29,2.42.58,4.84.87,7.26h0c0,.06.01.12.01.18,0,.68-.44,1.26-1.06,1.46h0l-2.44.79h0ZM26.22,26.94l-3.95,5.45h0c-.38.52-1.07.76-1.71.55-.06-.02-.11-.04-.16-.06h0c-.55-.25-1.1-.51-1.65-.76l1.02-1.83.38.18h0s.06.03.1.04c.4.13.82-.02,1.06-.34l2.83-3.89v-1.05s2.09.68,2.09.68v1.05h0ZM17.07,29.04l-1.02,1.83c-.76-.35-1.53-.71-2.29-1.06h0s-.07-.04-.07-.04c-.38-.19-.65-.52-.78-.9h0l-2.28-6.99,5.95-4.32h0c.33-.24.74-.34,1.16-.27h.08s0,.02,0,.02h0c2.39.47,4.78.94,7.18,1.41h0c.06.01.11.03.17.04.65.21,1.06.81,1.06,1.45h0v2.56s-2.09-.68-2.09-.68v-.64h0c0-.4-.26-.77-.66-.9-.03-.01-.07-.02-.1-.03h0l-5.35-1.06h0c-.25-.05-.51,0-.72.14l-4.22,3.07,1.61,4.96c.08.23.26.43.49.54h0l1.88.87h0ZM26.77,28.62l-1-.32-1.29,1.78,1,.32,2.83,3.89h0c.23.32.25.77,0,1.11-.02.03-.04.05-.06.08h0l-.29.31,1.42,1.54c.41-.44.82-.89,1.23-1.33h0s.08-.09.11-.14c.4-.55.38-1.28,0-1.8h0l-3.96-5.44h0ZM27.36,39.51l-1.42-1.53-1.4,1.52h0c-.18.19-.42.29-.66.3h-5.21s-1.61-4.96-1.61-4.96h0c-.07-.24-.04-.5.08-.72h0l2.66-4.77h0s.04-.06.06-.09c.25-.34.68-.47,1.06-.35h0l.61.2,1.29-1.78-2.44-.79h0c-.61-.2-1.31,0-1.71.56-.03.05-.07.1-.09.15h0c-1.19,2.13-2.37,4.26-3.56,6.39h0s-.04.07-.04.07c-.2.37-.22.8-.1,1.19h0l2.27,6.99h7.35c.4,0,.8-.16,1.1-.46l.05-.06h0c.57-.62,1.15-1.24,1.72-1.86h0ZM27.38,33.77l-.38.52c-.23.32-.25.77,0,1.11.02.03.04.05.07.08h0l3.71,4h0c.18.19.42.29.66.3h5.21s1.61-4.96,1.61-4.96h0c.07-.24.04-.5-.08-.72h0l-1.01-1.8,1.9-.88c.41.74.82,1.47,1.23,2.21h0s.04.07.04.07c.2.37.22.8.1,1.18h0l-2.27,6.99h-7.35c-.4,0-.8-.16-1.1-.46l-.05-.06h0c-1.66-1.79-3.32-3.58-4.98-5.37h0s-.08-.09-.11-.14c-.4-.55-.38-1.28,0-1.8h0l1.51-2.07,1.29,1.78Z" style="fill:#00a1c8; fill-rule:evenodd; stroke-width:0px;" /><path d="M27.65,19.48c.42-1.71,1.62-2.13,3.18-2.43l-.07-.59s0-.03,0-.04c0-.06-.03-.12-.06-.17-.03-.05-.06-.09-.11-.13l-2.94-2.14h0l-2.94,2.14s-.08.08-.11.13c-.03.05-.05.11-.06.17,0,.01,0,.02,0,.04l-.07.59c1.56.31,2.76.72,3.18,2.43h0ZM20.11,24.95c-1.76-.12-2.52.89-3.29,2.28l-.54-.25s-.02-.01-.04-.02c-.06-.03-.11-.07-.15-.11-.04-.04-.07-.09-.09-.15l-1.13-3.46h0l2.94-2.14s.1-.05.16-.06c.06-.01.12-.01.18,0,.01,0,.02,0,.04,0l.58.11c-.19,1.59-.16,2.85,1.33,3.78h0ZM22.98,33.83c-.66,1.63.06,2.67,1.14,3.84l-.4.43s-.02.02-.03.03c-.05.05-.09.08-.15.11-.05.02-.11.04-.17.04h-3.64l-1.12-3.46c-.01-.06-.02-.12-.01-.17,0-.06.03-.12.05-.17,0-.01.01-.02.02-.03l.29-.52c1.45.67,2.66,1.04,4.01-.1h0s0,0,0,0h0ZM32.32,33.83c.66,1.63-.06,2.67-1.14,3.84l.4.43s.02.02.03.03c.04.05.1.08.15.11.05.02.11.04.17.04h3.64l1.12-3.46c.01-.06.02-.12,0-.17,0-.06-.02-.12-.05-.17,0-.01-.01-.02-.02-.03l-.29-.52c-1.45.67-2.66,1.04-4.01-.1h0s0,0,0,0h0ZM35.21,24.95c1.76-.12,2.52.89,3.29,2.28l.54-.25s.02-.01.03-.02c.06-.03.11-.07.15-.11.04-.04.07-.09.09-.15l1.13-3.46h0l-2.94-2.14s-.1-.05-.16-.06c-.06-.01-.12-.01-.18,0-.01,0-.02,0-.04,0l-.58.11c.19,1.59.16,2.85-1.33,3.78h0Z" style="fill:#003d78; fill-rule:evenodd; stroke-width:0px;" /><path d="M27.65,53.5c-14.25,0-25.84-11.59-25.84-25.84S13.4,1.81,27.65,1.81s25.84,11.59,25.84,25.84-11.59,25.84-25.84,25.84h0ZM27.65,3.22C14.18,3.22,3.22,14.18,3.22,27.65s10.96,24.44,24.44,24.44,24.44-10.96,24.44-24.44S41.13,3.22,27.65,3.22Z" style="fill:#fff; fill-rule:evenodd; stroke-width:0px;" /><path d="M66.21,15.85c.02.85.16,1.14.38,1.21.19.07.39.08.57.08.12,0,.19.02.19.09,0,.09-.1.11-.25.11-.71,0-1.15-.03-1.35-.03-.1,0-.61.03-1.18.03-.14,0-.24-.01-.24-.11,0-.07.06-.09.17-.09.14,0,.34-.01.49-.05.28-.09.33-.4.34-1.35l.1-6.47c0-.22.03-.37.14-.37.12,0,.22.14.4.34.13.14,1.79,1.92,3.39,3.51.74.74,2.22,2.32,2.4,2.49h.05l-.11-4.9c0-.67-.11-.87-.37-.98-.16-.07-.43-.07-.58-.07-.13,0-.17-.03-.17-.1,0-.09.12-.1.28-.1.57,0,1.09.03,1.32.03.12,0,.54-.03,1.07-.03.14,0,.25.01.25.1,0,.07-.06.1-.2.1-.11,0-.2,0-.33.03-.31.09-.39.32-.4.93l-.12,6.89c0,.24-.04.34-.14.34-.12,0-.25-.12-.37-.24-.69-.65-2.09-2.09-3.22-3.21-1.19-1.18-2.4-2.54-2.6-2.75h-.03l.12,4.59Z" style="fill:#003d78; fill-rule:evenodd; stroke-width:0px;" /><path d="M77.36,12.25c0-1.66,0-1.97-.02-2.32-.02-.37-.11-.55-.47-.62-.09-.02-.27-.03-.43-.03-.12,0-.19-.02-.19-.1s.08-.1.24-.1c.3,0,.61.01.88.01.28.01.54.02.69.02.35,0,2.52,0,2.73-.01.21-.02.38-.04.47-.07.05-.01.12-.04.17-.04s.06.04.06.1c0,.08-.05.21-.09.71-.01.11-.03.59-.05.72-.01.05-.03.12-.11.12s-.1-.05-.1-.15c0-.08-.01-.26-.07-.39-.08-.2-.18-.33-.73-.39-.19-.02-1.33-.04-1.55-.04-.05,0-.08.03-.08.11v2.76c0,.08.01.12.08.12.24,0,1.5,0,1.75-.02.26-.02.43-.05.52-.16.08-.09.12-.14.17-.14.04,0,.08.02.08.09s-.04.24-.09.8c-.01.22-.04.65-.04.73,0,.09,0,.21-.1.21-.08,0-.1-.04-.1-.1-.01-.11-.01-.25-.04-.39-.05-.22-.21-.38-.61-.43-.21-.02-1.29-.03-1.55-.03-.05,0-.06.04-.06.11v.86c0,.37-.01,1.38,0,1.69.02.75.2.92,1.31.92.28,0,.74,0,1.03-.13.28-.13.41-.36.49-.81.02-.12.04-.16.12-.16.09,0,.09.09.09.2,0,.25-.09.99-.14,1.21-.08.28-.17.28-.59.28-.82,0-1.42-.02-1.89-.03-.47-.02-.81-.03-1.14-.03-.12,0-.36,0-.62.01-.25,0-.53.02-.75.02-.14,0-.22-.03-.22-.11,0-.05.04-.09.17-.09.16,0,.29-.02.39-.04.22-.04.27-.28.32-.6.05-.46.05-1.32.05-2.33v-1.92Z" style="fill:#003d78; fill-rule:evenodd; stroke-width:0px;" /><path d="M85.84,16.3c-1.07-.94-1.35-2.16-1.35-3.22,0-.74.23-2.03,1.28-2.99.79-.72,1.82-1.16,3.45-1.16.68,0,1.08.04,1.58.11.41.05.76.15,1.09.18.12.01.16.07.16.13,0,.09-.03.22-.05.6-.02.36-.01.96-.03,1.18-.01.16-.03.25-.13.25-.09,0-.11-.09-.11-.24-.01-.34-.15-.72-.43-1.01-.36-.38-1.21-.68-2.22-.68-.95,0-1.57.24-2.05.68-.8.73-1,1.77-1,2.83,0,2.6,1.98,3.89,3.44,3.89.97,0,1.56-.11,2-.61.19-.21.33-.52.37-.72.03-.17.05-.22.14-.22.08,0,.1.08.1.16,0,.13-.13,1.08-.24,1.45-.05.19-.1.24-.28.32-.44.17-1.27.25-1.97.25-1.5,0-2.75-.33-3.74-1.19Z" style="fill:#003d78; fill-rule:evenodd; stroke-width:0px;" /><path d="M96.24,9.13c.03-.19.1-.28.19-.28s.15.06.29.34l2.98,6.16,2.97-6.24c.09-.17.14-.26.24-.26s.16.11.2.34l.99,6.75c.1.69.21,1,.54,1.1.32.1.53.11.68.11.1,0,.17.01.17.08,0,.09-.13.12-.28.12-.27,0-1.78-.03-2.22-.07-.25-.02-.32-.05-.32-.12,0-.06.04-.09.12-.12.06-.02.1-.16.05-.47l-.65-4.8h-.04l-2.38,4.96c-.25.51-.31.61-.4.61s-.21-.22-.38-.55c-.26-.5-1.13-2.17-1.26-2.48-.1-.23-.75-1.6-1.14-2.42h-.04l-.57,4.35c-.02.2-.03.34-.03.51,0,.21.14.31.33.35.2.04.35.06.46.06.09,0,.16.02.16.08,0,.1-.1.12-.26.12-.46,0-.95-.03-1.15-.03-.21,0-.73.03-1.08.03-.11,0-.2-.02-.2-.12,0-.05.06-.08.17-.08.09,0,.16,0,.33-.03.31-.07.39-.49.45-.86l1.08-7.12Z" style="fill:#003d78; fill-rule:evenodd; stroke-width:0px;" /><path d="M108.64,12.25c0-1.66,0-1.97-.02-2.32-.02-.37-.11-.55-.47-.62-.09-.02-.27-.03-.43-.03-.12,0-.19-.02-.19-.1s.08-.1.24-.1c.3,0,.61.01.88.01.28.01.54.02.69.02.35,0,2.52,0,2.73-.01.21-.02.38-.04.47-.07.05-.01.12-.04.17-.04s.07.04.07.1c0,.08-.05.21-.09.71-.01.11-.03.59-.05.72-.01.05-.03.12-.11.12s-.1-.05-.1-.15c0-.08-.01-.26-.06-.39-.08-.2-.19-.33-.73-.39-.19-.02-1.33-.04-1.55-.04-.05,0-.08.03-.08.11v2.76c0,.08.01.12.08.12.24,0,1.5,0,1.75-.02.26-.02.43-.05.52-.16.08-.09.12-.14.17-.14.04,0,.08.02.08.09s-.04.24-.09.8c-.01.22-.04.65-.04.73,0,.09,0,.21-.1.21-.08,0-.1-.04-.1-.1-.01-.11-.01-.25-.04-.39-.05-.22-.21-.38-.61-.43-.21-.02-1.29-.03-1.55-.03-.05,0-.06.04-.06.11v.86c0,.37-.01,1.38,0,1.69.02.75.2.92,1.31.92.28,0,.74,0,1.03-.13.28-.13.41-.36.49-.81.02-.12.04-.16.12-.16.09,0,.09.09.09.2,0,.25-.09.99-.14,1.21-.08.28-.17.28-.59.28-.82,0-1.42-.02-1.89-.03-.47-.02-.81-.03-1.14-.03-.12,0-.36,0-.62.01-.25,0-.53.02-.75.02-.14,0-.22-.03-.22-.11,0-.05.04-.09.18-.09.16,0,.29-.02.39-.04.22-.04.27-.28.32-.6.05-.46.05-1.32.05-2.33v-1.92Z" style="fill:#003d78; fill-rule:evenodd; stroke-width:0px;" /><path d="M118.42,9.69l-1.63.04c-.63.02-.9.08-1.06.32-.11.16-.16.3-.19.38-.02.09-.05.13-.12.13-.08,0-.1-.06-.1-.17,0-.17.21-1.17.23-1.26.03-.14.07-.21.13-.21.09,0,.2.11.47.13.32.03.73.05,1.09.05h4.32c.35,0,.59-.03.75-.05.16-.03.25-.06.29-.06.08,0,.09.07.09.23,0,.23-.03.98-.03,1.27-.01.11-.03.18-.1.18-.09,0-.11-.06-.12-.22v-.12c-.03-.28-.33-.59-1.3-.61l-1.38-.03v4.48c0,1,0,1.87.05,2.34.03.31.1.55.43.59.15.02.39.04.56.04.12,0,.18.03.18.09,0,.08-.09.11-.21.11-.72,0-1.41-.03-1.71-.03-.25,0-.94.03-1.38.03-.14,0-.22-.03-.22-.11,0-.05.04-.09.17-.09.16,0,.29-.02.39-.04.22-.04.28-.28.32-.6.05-.46.05-1.32.05-2.33v-4.48Z" style="fill:#003d78; fill-rule:evenodd; stroke-width:0px;" /><path d="M127.59,9.69l-1.63.04c-.63.02-.89.08-1.06.32-.11.16-.16.3-.19.38-.02.09-.05.13-.12.13-.08,0-.1-.06-.1-.17,0-.17.21-1.17.23-1.26.03-.14.07-.21.13-.21.09,0,.2.11.47.13.32.03.73.05,1.09.05h4.32c.35,0,.59-.03.75-.05.16-.03.25-.06.3-.06.08,0,.09.07.09.23,0,.23-.03.98-.03,1.27-.01.11-.03.18-.1.18-.09,0-.11-.06-.12-.22v-.12c-.03-.28-.33-.59-1.3-.61l-1.38-.03v4.48c0,1,0,1.87.05,2.34.03.31.1.55.43.59.15.02.39.04.56.04.12,0,.17.03.17.09,0,.08-.09.11-.21.11-.72,0-1.41-.03-1.71-.03-.25,0-.94.03-1.38.03-.14,0-.22-.03-.22-.11,0-.05.04-.09.18-.09.16,0,.29-.02.39-.04.22-.04.28-.28.32-.6.05-.46.05-1.32.05-2.33v-4.48Z" style="fill:#003d78; fill-rule:evenodd; stroke-width:0px;" /><path d="M135.31,12.25c0-1.66,0-1.97-.02-2.32-.02-.37-.13-.56-.37-.61-.12-.03-.26-.04-.39-.04-.11,0-.17-.02-.17-.11,0-.07.09-.09.26-.09.41,0,1.1.03,1.42.03.27,0,.92-.03,1.33-.03.14,0,.23.02.23.09,0,.09-.06.11-.17.11s-.2.01-.33.03c-.3.05-.38.24-.4.62-.02.35-.02.65-.02,2.32v1.92c0,1.06,0,1.92.04,2.39.03.3.11.49.44.53.15.02.39.04.56.04.12,0,.17.03.17.09,0,.08-.09.11-.21.11-.72,0-1.41-.03-1.7-.03-.25,0-.94.03-1.38.03-.14,0-.22-.03-.22-.11,0-.05.04-.09.18-.09.16,0,.3-.02.39-.04.22-.04.28-.23.32-.55.05-.46.05-1.32.05-2.38v-1.92h0ZM135.37,7.63c0-.27.18-.63.61-.63.35,0,.62.23.62.59s-.25.65-.62.65c-.44,0-.61-.34-.61-.61Z" style="fill:#003d78; fill-rule:evenodd; stroke-width:0px;" /><path d="M142.27,15.85c.02.85.16,1.14.38,1.21.19.07.39.08.57.08.12,0,.19.02.19.09,0,.09-.1.11-.25.11-.71,0-1.15-.03-1.35-.03-.1,0-.61.03-1.18.03-.14,0-.24-.01-.24-.11,0-.07.07-.09.18-.09.14,0,.34-.01.49-.05.28-.09.33-.4.34-1.35l.1-6.47c0-.22.03-.37.14-.37.12,0,.22.14.4.34.13.14,1.79,1.92,3.38,3.51.74.74,2.22,2.32,2.4,2.49h.05l-.11-4.9c-.01-.67-.11-.87-.37-.98-.16-.07-.43-.07-.58-.07-.13,0-.17-.03-.17-.1,0-.09.12-.1.28-.1.57,0,1.09.03,1.32.03.12,0,.53-.03,1.07-.03.14,0,.25.01.25.1,0,.07-.06.1-.2.1-.11,0-.2,0-.33.03-.31.09-.39.32-.4.93l-.12,6.89c0,.24-.04.34-.14.34-.12,0-.25-.12-.37-.24-.69-.65-2.09-2.09-3.22-3.21-1.19-1.18-2.4-2.54-2.6-2.75h-.03l.12,4.59Z" style="fill:#003d78; fill-rule:evenodd; stroke-width:0px;" /><path d="M65.6,26.2c0-1.66,0-1.97-.02-2.32-.02-.37-.11-.55-.47-.62-.09-.02-.27-.03-.43-.03-.12,0-.19-.02-.19-.1s.08-.1.24-.1c.29,0,.61.01.88.01.28.01.53.02.69.02.35,0,2.52,0,2.73-.01.21-.02.38-.04.47-.06.05-.01.12-.04.18-.04s.06.04.06.1c0,.08-.05.21-.09.71-.01.11-.03.59-.05.72,0,.05-.03.12-.11.12s-.1-.05-.1-.15c0-.08-.01-.26-.07-.39-.08-.2-.19-.33-.73-.39-.19-.02-1.33-.04-1.55-.04-.05,0-.08.03-.08.11v2.76c0,.08.01.12.08.12.24,0,1.5,0,1.75-.02.26-.02.43-.05.52-.16.08-.09.12-.14.17-.14.04,0,.08.02.08.09s-.04.24-.09.8c-.01.22-.04.66-.04.73,0,.09,0,.21-.1.21-.08,0-.1-.04-.1-.1-.01-.11-.01-.25-.04-.39-.05-.22-.21-.38-.61-.43-.21-.02-1.29-.03-1.55-.03-.05,0-.07.04-.07.11v.86c0,.37-.01,1.38,0,1.69.02.75.2.92,1.31.92.28,0,.74,0,1.03-.13.28-.13.41-.36.49-.81.02-.12.04-.16.12-.16.09,0,.09.09.09.2,0,.25-.09.99-.14,1.21-.08.28-.18.28-.59.28-.82,0-1.42-.02-1.89-.03-.47-.02-.81-.03-1.14-.03-.12,0-.36,0-.62.01-.25,0-.54.02-.75.02-.14,0-.22-.03-.22-.11,0-.05.04-.09.17-.09.16,0,.3-.02.39-.04.22-.04.27-.28.32-.6.05-.46.05-1.32.05-2.33v-1.92Z" style="fill:#003d78; fill-rule:evenodd; stroke-width:0px;" /><path d="M73.92,26.2c0-1.66,0-1.97-.02-2.32-.02-.37-.11-.55-.47-.62-.09-.02-.27-.03-.43-.03-.12,0-.19-.02-.19-.1s.08-.1.24-.1c.58,0,1.27.03,1.5.03.37,0,1.2-.03,1.54-.03.69,0,1.42.07,2.01.47.31.21.74.76.74,1.5,0,.81-.34,1.55-1.44,2.45.97,1.22,1.73,2.19,2.37,2.87.61.63,1.06.71,1.22.74.12.02.22.03.31.03s.13.03.13.09c0,.09-.08.11-.21.11h-1.04c-.61,0-.88-.06-1.17-.21-.47-.25-.88-.76-1.5-1.6-.44-.6-.94-1.34-1.08-1.51-.05-.07-.12-.08-.2-.08l-.95-.02c-.05,0-.09.02-.09.09v.15c0,1.02,0,1.88.05,2.34.03.32.1.56.43.6.16.02.4.04.53.04.09,0,.13.03.13.09,0,.08-.08.11-.22.11-.63,0-1.44-.03-1.6-.03-.21,0-.9.03-1.33.03-.14,0-.22-.03-.22-.11,0-.05.04-.09.18-.09.16,0,.3-.02.39-.04.22-.04.27-.28.32-.6.05-.46.05-1.32.05-2.33v-1.92h0ZM75.21,27.06c0,.12.02.16.1.2.23.08.56.11.83.11.44,0,.58-.04.77-.18.33-.24.64-.74.64-1.64,0-1.55-1.03-2-1.67-2-.27,0-.47,0-.58.04-.08.02-.1.07-.1.15v3.32Z" style="fill:#003d78; fill-rule:evenodd; stroke-width:0px;" /><path d="M83.58,26.2c0-1.66,0-1.97-.02-2.32-.02-.37-.11-.55-.47-.62-.09-.02-.27-.03-.43-.03-.12,0-.19-.02-.19-.1s.08-.1.24-.1c.58,0,1.27.03,1.48.03.54,0,.96-.03,1.33-.03,1.98,0,2.33,1.06,2.33,1.64,0,.9-.51,1.43-1.11,1.91.89.31,1.99,1.08,1.99,2.36,0,1.17-.91,2.38-2.92,2.38-.13,0-.45-.02-.76-.03-.33-.02-.66-.03-.82-.03-.12,0-.36,0-.62.01-.25,0-.54.02-.75.02-.14,0-.22-.03-.22-.11,0-.05.04-.09.17-.09.16,0,.3-.02.39-.04.22-.04.27-.28.32-.6.05-.46.05-1.32.05-2.33v-1.92h0ZM84.89,26.39c0,.09.03.11.08.12.1.02.26.03.51.03.36,0,.6-.04.79-.21.28-.23.45-.62.45-1.16,0-.73-.43-1.69-1.36-1.69-.15,0-.25,0-.36.02-.08.02-.1.07-.1.19v2.7h0ZM86.33,27.26c-.23-.16-.48-.24-.91-.26-.2-.01-.3-.01-.47-.01-.04,0-.07.02-.07.08v2.59c0,.72.03.91.38,1.05.29.12.54.13.8.13.49,0,1.32-.26,1.32-1.4,0-.68-.23-1.59-1.06-2.17Z" style="fill:#003d78; fill-rule:evenodd; stroke-width:0px;" /><path d="M93.21,28.44c-.05,0-.08.02-.1.09l-.59,1.56c-.11.27-.16.54-.16.67,0,.2.1.34.44.34h.16c.13,0,.16.02.16.09,0,.09-.07.11-.19.11-.35,0-.82-.03-1.16-.03-.12,0-.72.03-1.29.03-.14,0-.21-.02-.21-.11,0-.07.04-.09.13-.09.1,0,.25-.01.34-.02.5-.07.71-.44.93-.98l2.74-6.86c.13-.32.2-.44.31-.44.1,0,.16.1.27.35.26.6,2.01,5.06,2.71,6.72.41.98.73,1.14.96,1.19.16.03.33.04.46.04.09,0,.14.01.14.09,0,.09-.1.11-.5.11s-1.19,0-2.06-.02c-.2-.01-.33-.01-.33-.09,0-.07.04-.09.15-.1.08-.02.15-.12.1-.25l-.87-2.32c-.02-.05-.05-.08-.11-.08h-2.43ZM95.44,27.89c.05,0,.06-.03.05-.07l-.98-2.7s-.02-.1-.05-.1-.05.06-.07.1l-1,2.69s0,.08.04.08h2.01Z" style="fill:#003d78; fill-rule:evenodd; stroke-width:0px;" /><path d="M103.17,26.68h.05c.37-.4,1.96-2.03,2.28-2.4.31-.36.55-.63.55-.82,0-.12-.04-.2-.15-.22-.1-.02-.14-.04-.14-.11,0-.08.05-.1.17-.1.23,0,.83.03,1.12.03.34,0,.94-.03,1.28-.03.11,0,.19.02.19.1s-.05.1-.16.1c-.15,0-.43.04-.63.12-.34.13-.71.36-1.18.82-.34.33-1.99,1.96-2.36,2.36.39.51,2.53,2.82,2.96,3.22.48.46.97.95,1.56,1.18.33.13.55.16.68.16.08,0,.14.02.14.09,0,.08-.05.11-.26.11h-.95c-.33,0-.52,0-.75-.02-.59-.05-.88-.29-1.35-.71-.48-.43-2.63-2.95-2.86-3.27l-.12-.16h-.05v.99c0,1,0,1.87.03,2.34.02.31.12.55.39.59.15.02.39.04.53.04.09,0,.14.03.14.09,0,.08-.09.11-.21.11-.61,0-1.3-.03-1.57-.03-.25,0-.94.03-1.38.03-.14,0-.22-.03-.22-.11,0-.06.04-.09.17-.09.16,0,.3-.02.39-.04.22-.04.27-.28.32-.6.05-.46.05-1.32.05-2.33v-1.92c0-1.66,0-1.97-.02-2.32-.02-.37-.11-.55-.47-.62-.09-.02-.27-.03-.42-.03-.12,0-.19-.02-.19-.1s.08-.1.24-.1c.58,0,1.27.03,1.53.03s.95-.03,1.32-.03c.15,0,.23.02.23.1s-.07.1-.15.1c-.11,0-.17.01-.31.03-.3.05-.38.24-.4.62-.02.35-.02.66-.02,2.32v.48Z" style="fill:#003d78; fill-rule:evenodd; stroke-width:0px;" /><path d="M113.06,28.44c-.05,0-.08.02-.1.09l-.59,1.56c-.11.27-.16.54-.16.67,0,.2.1.34.44.34h.16c.13,0,.16.02.16.09,0,.09-.07.11-.19.11-.35,0-.82-.03-1.16-.03-.12,0-.72.03-1.29.03-.14,0-.21-.02-.21-.11,0-.07.04-.09.13-.09.1,0,.25-.01.34-.02.5-.07.71-.44.93-.98l2.74-6.86c.13-.32.2-.44.31-.44.1,0,.16.1.27.35.26.6,2.01,5.06,2.71,6.72.41.98.73,1.14.96,1.19.16.03.33.04.46.04.09,0,.14.01.14.09,0,.09-.1.11-.5.11s-1.19,0-2.06-.02c-.2-.01-.33-.01-.33-.09,0-.07.04-.09.15-.1.08-.02.15-.12.1-.25l-.87-2.32c-.02-.05-.05-.08-.11-.08h-2.44ZM115.29,27.89c.05,0,.07-.03.05-.07l-.98-2.7s-.02-.1-.05-.1-.05.06-.07.1l-1,2.69s0,.08.04.08h2.01Z" style="fill:#003d78; fill-rule:evenodd; stroke-width:0px;" /><path d="M122.46,29.8c.02.85.16,1.14.38,1.21.19.06.39.08.57.08.12,0,.19.02.19.09,0,.09-.1.11-.25.11-.71,0-1.15-.03-1.35-.03-.1,0-.61.03-1.18.03-.14,0-.24-.01-.24-.11,0-.07.07-.09.18-.09.14,0,.34-.01.49-.06.28-.09.33-.4.34-1.35l.1-6.46c0-.22.03-.37.14-.37.12,0,.22.14.4.34.13.14,1.79,1.92,3.38,3.51.74.74,2.22,2.32,2.4,2.49h.05l-.11-4.9c-.01-.67-.11-.87-.37-.98-.16-.07-.43-.07-.58-.07-.13,0-.17-.03-.17-.1,0-.09.12-.1.28-.1.57,0,1.09.03,1.32.03.12,0,.53-.03,1.07-.03.14,0,.25.01.25.1,0,.07-.06.1-.2.1-.11,0-.2,0-.33.03-.31.09-.39.32-.4.93l-.12,6.89c0,.24-.04.34-.14.34-.12,0-.25-.12-.37-.24-.69-.65-2.09-2.09-3.22-3.21-1.19-1.18-2.4-2.54-2.6-2.75h-.03l.12,4.59Z" style="fill:#003d78; fill-rule:evenodd; stroke-width:0px;" /><path d="M65.13,40.15c0-1.66,0-1.97-.02-2.31-.02-.37-.11-.55-.47-.62-.09-.02-.27-.03-.43-.03-.12,0-.19-.02-.19-.1s.08-.1.24-.1c.58,0,1.27.03,1.6.03.26,0,.95-.03,1.34-.03.16,0,.24.02.24.1s-.07.1-.18.1c-.12,0-.18.01-.32.03-.3.05-.38.24-.4.62-.02.35-.02.65-.02,2.31v1.53c0,1.58.32,2.25.85,2.69.49.4.99.45,1.36.45.48,0,1.07-.15,1.51-.59.6-.6.63-1.58.63-2.71v-1.36c0-1.66,0-1.97-.02-2.31-.02-.37-.11-.55-.47-.62-.09-.02-.27-.03-.39-.03s-.18-.02-.18-.1.08-.1.23-.1c.56,0,1.25.03,1.26.03.13,0,.82-.03,1.24-.03.15,0,.23.02.23.1s-.07.1-.2.1c-.12,0-.18.01-.32.03-.29.05-.38.24-.4.62-.02.35-.02.65-.02,2.31v1.17c0,1.21-.12,2.5-1.04,3.29-.77.67-1.56.79-2.27.79-.58,0-1.63-.03-2.42-.75-.56-.5-.97-1.31-.97-2.89v-1.59h0ZM67.02,35.63c0-.21.15-.5.5-.5.28,0,.51.17.51.47s-.21.55-.52.55c-.35,0-.49-.28-.49-.51h0ZM69.32,35.63c0-.22.15-.51.5-.51.28,0,.51.17.51.48s-.21.55-.52.55c-.35,0-.49-.28-.49-.51Z" style="fill:#003d78; fill-rule:evenodd; stroke-width:0px;" /><path d="M76.93,43.76c.02.85.16,1.14.38,1.21.19.06.39.08.57.08.12,0,.19.02.19.09,0,.09-.1.11-.25.11-.71,0-1.15-.03-1.35-.03-.1,0-.61.03-1.18.03-.14,0-.24-.01-.24-.11,0-.07.06-.09.17-.09.14,0,.34-.01.49-.05.28-.09.33-.4.34-1.35l.1-6.47c0-.22.03-.37.14-.37.12,0,.22.14.4.34.13.14,1.79,1.92,3.39,3.5.74.74,2.22,2.32,2.4,2.49h.05l-.11-4.9c-.01-.67-.11-.87-.37-.98-.16-.07-.43-.07-.58-.07-.13,0-.17-.03-.17-.1,0-.09.12-.1.28-.1.57,0,1.09.03,1.32.03.12,0,.53-.03,1.07-.03.14,0,.25.01.25.1,0,.07-.07.1-.2.1-.11,0-.2,0-.33.03-.31.09-.39.32-.4.93l-.12,6.89c0,.24-.04.34-.14.34-.12,0-.25-.12-.37-.24-.69-.65-2.09-2.09-3.22-3.21-1.19-1.18-2.4-2.54-2.6-2.75h-.03l.12,4.59Z" style="fill:#003d78; fill-rule:evenodd; stroke-width:0px;" /><path d="M88.08,40.15c0-1.66,0-1.97-.02-2.31-.02-.37-.13-.56-.37-.61-.12-.03-.26-.04-.39-.04-.11,0-.17-.02-.17-.11,0-.07.09-.09.26-.09.41,0,1.1.03,1.42.03.27,0,.92-.03,1.33-.03.14,0,.23.02.23.09,0,.09-.07.11-.18.11s-.2.01-.33.03c-.3.05-.38.24-.4.62-.02.35-.02.65-.02,2.31v1.92c0,1.06,0,1.92.04,2.39.03.3.11.49.44.53.15.02.39.04.56.04.12,0,.18.03.18.09,0,.08-.09.11-.21.11-.72,0-1.41-.03-1.7-.03-.25,0-.94.03-1.38.03-.14,0-.22-.03-.22-.11,0-.05.04-.09.17-.09.16,0,.29-.02.39-.04.22-.04.28-.23.32-.55.05-.46.05-1.32.05-2.38v-1.92h0ZM88.15,35.54c0-.27.17-.63.61-.63.35,0,.62.23.62.59s-.25.66-.62.66c-.44,0-.61-.34-.61-.61Z" style="fill:#003d78; fill-rule:evenodd; stroke-width:0px;" /><path d="M93.43,38.06c-.25-.6-.44-.72-.83-.83-.16-.04-.34-.04-.43-.04-.1,0-.13-.03-.13-.1,0-.09.12-.1.28-.1.58,0,1.2.03,1.58.03.27,0,.8-.03,1.34-.03.13,0,.25.02.25.1s-.07.1-.16.1c-.18,0-.34.01-.43.08-.08.06-.11.13-.11.23,0,.14.1.45.25.84l1.88,4.96h.04c.47-1.2,1.89-4.72,2.15-5.44.05-.14.1-.3.1-.4,0-.09-.04-.17-.14-.21-.13-.04-.29-.05-.44-.05-.1,0-.19,0-.19-.09,0-.09.1-.11.31-.11.55,0,1,.03,1.15.03.19,0,.7-.03,1.03-.03.14,0,.23.02.23.1s-.07.1-.17.1-.34,0-.53.13c-.14.1-.31.28-.6.98-.43,1.03-.72,1.62-1.31,2.96-.7,1.6-1.21,2.78-1.45,3.33-.28.63-.35.81-.5.81-.14,0-.21-.15-.41-.67l-2.75-6.67Z" style="fill:#003d78; fill-rule:evenodd; stroke-width:0px;" /><path d="M103.76,40.15c0-1.66,0-1.97-.02-2.31-.02-.37-.11-.55-.47-.62-.09-.02-.27-.03-.43-.03-.12,0-.19-.02-.19-.1s.08-.1.24-.1c.3,0,.61.01.88.01.28.01.53.02.69.02.35,0,2.52,0,2.73-.01.21-.02.38-.04.47-.07.05-.01.12-.04.17-.04s.06.04.06.1c0,.08-.05.21-.09.71-.01.11-.03.59-.05.72-.01.05-.03.12-.11.12s-.1-.05-.1-.15c0-.08-.01-.26-.07-.39-.08-.2-.18-.33-.73-.39-.19-.02-1.33-.04-1.55-.04-.05,0-.08.03-.08.11v2.76c0,.08.01.12.08.12.24,0,1.5,0,1.75-.02.26-.02.43-.05.52-.16.08-.09.12-.14.17-.14.04,0,.08.02.08.09s-.04.24-.09.8c-.01.22-.04.65-.04.73,0,.09,0,.21-.1.21-.08,0-.1-.04-.1-.1-.01-.11-.01-.25-.04-.39-.05-.22-.21-.38-.61-.43-.21-.02-1.29-.03-1.55-.03-.05,0-.06.04-.06.11v.86c0,.37-.01,1.38,0,1.69.02.75.2.92,1.31.92.28,0,.74,0,1.03-.13.28-.13.41-.36.49-.81.02-.12.04-.16.12-.16.09,0,.09.09.09.2,0,.25-.09.99-.14,1.21-.08.28-.17.28-.59.28-.82,0-1.42-.02-1.89-.03-.47-.02-.81-.03-1.14-.03-.12,0-.36,0-.62.01-.25,0-.53.02-.75.02-.14,0-.22-.03-.22-.11,0-.05.04-.09.17-.09.16,0,.3-.02.39-.04.22-.04.27-.28.32-.6.05-.46.05-1.32.05-2.33v-1.92Z" style="fill:#003d78; fill-rule:evenodd; stroke-width:0px;" /><path d="M112.08,40.15c0-1.66,0-1.97-.02-2.31-.02-.37-.11-.55-.47-.62-.09-.02-.27-.03-.43-.03-.12,0-.19-.02-.19-.1s.08-.1.24-.1c.58,0,1.27.03,1.5.03.37,0,1.2-.03,1.54-.03.69,0,1.42.07,2.01.47.31.21.74.76.74,1.5,0,.81-.34,1.55-1.44,2.45.97,1.22,1.73,2.19,2.37,2.87.61.63,1.06.71,1.22.74.12.02.22.03.31.03s.13.03.13.09c0,.09-.08.11-.21.11h-1.04c-.61,0-.88-.05-1.17-.21-.47-.25-.88-.76-1.5-1.61-.44-.6-.94-1.34-1.08-1.51-.05-.07-.12-.08-.2-.08l-.95-.02c-.05,0-.09.02-.09.09v.15c0,1.02,0,1.88.05,2.34.03.32.1.56.43.6.16.02.4.04.53.04.09,0,.13.03.13.09,0,.08-.08.11-.22.11-.63,0-1.44-.03-1.6-.03-.21,0-.9.03-1.33.03-.14,0-.22-.03-.22-.11,0-.05.04-.09.18-.09.16,0,.29-.02.39-.04.22-.04.27-.28.32-.6.05-.46.05-1.32.05-2.33v-1.92h0ZM113.37,41.02c0,.12.02.16.1.2.23.08.56.11.83.11.44,0,.58-.04.77-.19.33-.24.64-.74.64-1.64,0-1.55-1.03-2-1.67-2-.27,0-.47.01-.58.04-.08.02-.1.07-.1.15v3.32Z" style="fill:#003d78; fill-rule:evenodd; stroke-width:0px;" /><path d="M120.98,45.11c-.17-.08-.21-.13-.21-.37,0-.6.04-1.26.05-1.43.01-.16.04-.28.13-.28.1,0,.11.1.11.19,0,.14.04.37.1.56.24.81.88,1.1,1.56,1.1.98,0,1.46-.67,1.46-1.24,0-.53-.16-1.04-1.07-1.75l-.5-.39c-1.2-.94-1.62-1.7-1.62-2.59,0-1.2,1-2.06,2.52-2.06.71,0,1.17.11,1.45.19.1.02.15.05.15.13,0,.14-.04.46-.04,1.31,0,.24-.03.33-.12.33-.08,0-.11-.07-.11-.2,0-.1-.05-.44-.28-.72-.16-.21-.48-.54-1.19-.54-.81,0-1.3.47-1.3,1.12,0,.5.25.88,1.16,1.57l.31.23c1.32.99,1.79,1.75,1.79,2.78,0,.63-.24,1.39-1.03,1.9-.55.35-1.16.45-1.74.45-.63,0-1.12-.08-1.59-.28Z" style="fill:#003d78; fill-rule:evenodd; stroke-width:0px;" /><path d="M129.36,40.15c0-1.66,0-1.97-.02-2.31-.02-.37-.13-.56-.37-.61-.12-.03-.26-.04-.39-.04-.11,0-.18-.02-.18-.11,0-.07.09-.09.26-.09.41,0,1.1.03,1.42.03.27,0,.92-.03,1.33-.03.14,0,.23.02.23.09,0,.09-.06.11-.17.11s-.2.01-.33.03c-.29.05-.38.24-.4.62-.02.35-.02.65-.02,2.31v1.92c0,1.06,0,1.92.04,2.39.03.3.11.49.44.53.15.02.39.04.56.04.12,0,.18.03.18.09,0,.08-.09.11-.21.11-.72,0-1.41-.03-1.7-.03-.25,0-.94.03-1.38.03-.14,0-.22-.03-.22-.11,0-.05.04-.09.17-.09.16,0,.3-.02.39-.04.22-.04.28-.23.32-.55.05-.46.05-1.32.05-2.38v-1.92h0ZM129.42,35.54c0-.27.17-.63.61-.63.35,0,.62.23.62.59s-.25.66-.62.66c-.44,0-.61-.34-.61-.61Z" style="fill:#003d78; fill-rule:evenodd; stroke-width:0px;" /><path d="M137.16,37.6l-1.63.04c-.63.02-.9.08-1.06.32-.11.16-.16.3-.19.38-.02.09-.05.13-.12.13-.08,0-.1-.06-.1-.18,0-.17.21-1.17.23-1.26.03-.14.07-.21.13-.21.09,0,.2.11.47.13.32.03.73.05,1.09.05h4.32c.35,0,.59-.03.75-.05.16-.03.25-.06.29-.06.08,0,.09.07.09.23,0,.23-.03.98-.03,1.27-.01.11-.03.17-.1.17-.09,0-.11-.06-.12-.22v-.12c-.03-.28-.33-.59-1.3-.61l-1.38-.03v4.48c0,1.01,0,1.87.05,2.34.03.31.1.55.43.59.15.02.39.04.56.04.12,0,.18.03.18.09,0,.08-.09.11-.21.11-.72,0-1.41-.03-1.71-.03-.25,0-.94.03-1.38.03-.14,0-.22-.03-.22-.11,0-.05.04-.09.17-.09.16,0,.29-.02.39-.04.22-.04.28-.28.32-.6.05-.46.05-1.32.05-2.33v-4.48Z" style="fill:#003d78; fill-rule:evenodd; stroke-width:0px;" /><path d="M144.88,40.15c0-1.66,0-1.97-.02-2.31-.02-.37-.11-.55-.47-.62-.09-.02-.27-.03-.43-.03-.12,0-.19-.02-.19-.1s.08-.1.24-.1c.29,0,.61.01.88.01.28.01.54.02.69.02.35,0,2.52,0,2.73-.01.21-.02.38-.04.47-.07.05-.01.12-.04.17-.04s.07.04.07.1c0,.08-.05.21-.09.71-.01.11-.03.59-.05.72-.01.05-.03.12-.11.12s-.1-.05-.1-.15c0-.08-.01-.26-.07-.39-.08-.2-.18-.33-.73-.39-.19-.02-1.33-.04-1.55-.04-.05,0-.08.03-.08.11v2.76c0,.08.01.12.08.12.24,0,1.5,0,1.75-.02.26-.02.43-.05.52-.16.08-.09.12-.14.17-.14.04,0,.08.02.08.09s-.04.24-.09.8c0,.22-.04.65-.04.73,0,.09,0,.21-.1.21-.08,0-.1-.04-.1-.1-.01-.11-.01-.25-.04-.39-.05-.22-.21-.38-.61-.43-.21-.02-1.29-.03-1.55-.03-.05,0-.06.04-.06.11v.86c0,.37-.01,1.38,0,1.69.02.75.2.92,1.31.92.28,0,.74,0,1.03-.13.28-.13.41-.36.49-.81.02-.12.04-.16.12-.16.09,0,.09.09.09.2,0,.25-.09.99-.14,1.21-.08.28-.17.28-.59.28-.82,0-1.42-.02-1.89-.03-.47-.02-.81-.03-1.14-.03-.12,0-.36,0-.62.01-.25,0-.53.02-.75.02-.14,0-.22-.03-.22-.11,0-.05.04-.09.18-.09.16,0,.29-.02.39-.04.22-.04.27-.28.32-.6.05-.46.05-1.32.05-2.33v-1.92Z" style="fill:#003d78; fill-rule:evenodd; stroke-width:0px;" /><path d="M152.6,45.11c-.17-.08-.21-.13-.21-.37,0-.6.04-1.26.05-1.43.01-.16.04-.28.13-.28.1,0,.11.1.11.19,0,.14.04.37.1.56.24.81.88,1.1,1.56,1.1.98,0,1.46-.67,1.46-1.24,0-.53-.16-1.04-1.07-1.75l-.5-.39c-1.2-.94-1.62-1.7-1.62-2.59,0-1.2,1-2.06,2.52-2.06.71,0,1.17.11,1.45.19.1.02.15.05.15.13,0,.14-.04.46-.04,1.31,0,.24-.03.33-.12.33-.08,0-.11-.07-.11-.2,0-.1-.05-.44-.28-.72-.16-.21-.48-.54-1.19-.54-.81,0-1.3.47-1.3,1.12,0,.5.25.88,1.16,1.57l.31.23c1.32.99,1.79,1.75,1.79,2.78,0,.63-.24,1.39-1.03,1.9-.55.35-1.16.45-1.74.45-.63,0-1.12-.08-1.59-.28Z" style="fill:#003d78; fill-rule:evenodd; stroke-width:0px;" /><path d="M160.98,40.15c0-1.66,0-1.97-.02-2.31-.02-.37-.13-.56-.37-.61-.12-.03-.26-.04-.39-.04-.11,0-.17-.02-.17-.11,0-.07.09-.09.26-.09.41,0,1.1.03,1.42.03.27,0,.92-.03,1.33-.03.14,0,.23.02.23.09,0,.09-.06.11-.17.11s-.2.01-.33.03c-.29.05-.38.24-.4.62-.02.35-.02.65-.02,2.31v1.92c0,1.06,0,1.92.04,2.39.03.3.11.49.44.53.15.02.39.04.56.04.12,0,.17.03.17.09,0,.08-.09.11-.21.11-.72,0-1.41-.03-1.7-.03-.25,0-.94.03-1.38.03-.14,0-.22-.03-.22-.11,0-.05.04-.09.18-.09.16,0,.29-.02.39-.04.22-.04.28-.23.32-.55.05-.46.05-1.32.05-2.38v-1.92h0ZM161.04,35.54c0-.27.17-.63.61-.63.35,0,.62.23.62.59s-.25.66-.62.66c-.44,0-.61-.34-.61-.61Z" style="fill:#003d78; fill-rule:evenodd; stroke-width:0px;" /></g></g></g></g></svg>